#!OML:ASF I:\Actors\actors\Patient Classification 1\Patient 1\Session 1\Subject1.ASF
:FULLY-SPECIFIED
:DEGREES
408
root 1.14527 17.3514 9.80033 -2.08558 -1.13581 -3.91304
lowerback -10.9578 2.17024 2.30769
upperback -13.431 2.69875 -1.26834
thorax -7.99539 1.07797 -2.52793
lowerneck -9.12758 -1.50216 1.90603
upperneck 23.4959 -1.38221 -4.58127
head 8.76974 -0.966508 -2.01858
rclavicle -1.23246e-014 -1.51076e-014
rhumerus -59.6831 24.1572 -111.19
rradius 116.085
rwrist -11.8416
rhand 50.6161 -30.3711
rfingers 7.12502
rthumb 70.3497 -24.957
lclavicle -1.23246e-014 -1.51076e-014
lhumerus -60.1448 -21.3658 109.276
lradius 113.03
lwrist 10.313
lhand 19.0951 -16.7363
lfingers 7.12502
lthumb 43.6912 7.26074
rfemur 8.60133 18.0763 23.407
rtibia 11.0136
rfoot -19.3603 -16.7258
rtoes -7.09477
lfemur 17.3671 -26.143 -23.5025
ltibia 0.470766
lfoot -15.4764 34.7959
ltoes -7.14995
409
root 1.1349 17.3596 9.76207 -1.02631 -1.48107 -6.21626
lowerback -11.808 2.49137 4.4232
upperback -13.3805 3.00154 -0.679123
thorax -7.40721 1.09447 -3.02741
lowerneck -9.14559 -1.45175 1.92762
upperneck 20.8988 -1.29332 -5.01238
head 7.8955 -0.952488 -2.10607
rclavicle -7.55382e-015 7.95139e-015
rhumerus -59.9579 24.9797 -111.644
rradius 115.967
rwrist -12.89
rhand 49.4355 -29.9301
rfingers 7.12502
rthumb 69.5778 -26.9665
lclavicle -7.55382e-015 7.95139e-015
lhumerus -59.6888 -21.3186 109.282
lradius 113.107
lwrist 10.7504
lhand 19.8995 -16.5061
lfingers 7.12502
lthumb 44.4415 7.21011
rfemur 6.74638 18.5543 25.7919
rtibia 12.0317
rfoot -19.47 -16.8978
rtoes -7.55021
lfemur 15.9967 -26.2174 -19.8728
ltibia 0.331299
lfoot -15.5555 34.8272
ltoes -6.91605
410
root 1.12058 17.3534 9.73319 -0.590984 -1.55747 -7.29628
lowerback -12.7138 2.57404 4.98534
upperback -12.6949 3.01889 -0.230643
thorax -6.14166 1.12705 -2.8068
lowerneck -9.64607 -1.3713 1.91775
upperneck 18.1954 -1.16378 -5.56919
head 7.10089 -0.926813 -2.2312
rclavicle -8.34896e-015 -1.19271e-014
rhumerus -59.8346 25.7939 -111.992
rradius 115.619
rwrist -14.5836
rhand 48.6012 -30.1092
rfingers 7.12502
rthumb 69.0104 -28.764
lclavicle -8.34896e-015 -1.19271e-014
lhumerus -58.653 -21.3762 109.371
lradius 112.986
lwrist 11.5393
lhand 20.8995 -15.978
lfingers 7.12502
lthumb 45.3721 7.37346
rfemur 5.77003 18.6193 26.8914
rtibia 12.7567
rfoot -19.559 -16.9289
rtoes -8.27832
lfemur 15.2694 -26.1039 -18.0608
ltibia 0.377195
lfoot -15.5538 34.6585
ltoes -6.95773
411
root 1.10233 17.3359 9.71261 -0.673504 -1.42076 -7.21942
lowerback -12.1787 2.74811 4.70902
upperback -12.6126 3.28913 -0.55348
thorax -6.30763 1.26578 -2.99406
lowerneck -9.56335 -1.52358 1.97909
upperneck 16.0438 -1.41623 -5.84737
head 6.38353 -1.0469 -2.31242
rclavicle 3.18055e-015 1.35174e-014
rhumerus -60.7854 24.5161 -112.985
rradius 115.316
rwrist -16.2821
rhand 48.3201 -31.122
rfingers 7.12502
rthumb 68.8155 -30.3018
lclavicle 3.18055e-015 1.35174e-014
lhumerus -59.4645 -22.0653 110.115
lradius 112.899
lwrist 11.889
lhand 21.6951 -15.4126
lfingers 7.12502
lthumb 46.1108 7.63572
rfemur 5.57 18.3984 26.8054
rtibia 13.1459
rfoot -19.7011 -16.8839
rtoes -8.72989
lfemur 15.0268 -25.8312 -17.9134
ltibia 0.633546
lfoot -15.337 34.3035
ltoes -7.58642
412
root 1.07854 17.3189 9.68225 -0.686959 -1.21469 -7.47253
lowerback -12.5247 2.76225 4.38152
upperback -11.8394 3.29593 -0.48779
thorax -5.27226 1.33588 -2.7024
lowerneck -10.1014 -1.50826 1.91703
upperneck 13.4393 -1.43261 -6.23818
head 5.654 -1.06595 -2.39106
rclavicle 5.56597e-015 -5.56597e-015
rhumerus -60.813 23.9769 -113.436
rradius 115.254
rwrist -18.0655
rhand 47.5033 -32.7199
rfingers 7.12502
rthumb 68.2387 -33.3704
lclavicle 5.56597e-015 -5.56597e-015
lhumerus -59.2469 -22.7585 110.612
lradius 112.651
lwrist 11.7864
lhand 21.7664 -14.7696
lfingers 7.12502
lthumb 46.177 8.2509
rfemur 5.20703 18.2869 27.1405
rtibia 13.6746
rfoot -19.8485 -17.0229
rtoes -9.14462
lfemur 14.4332 -25.2819 -17.0361
ltibia 1.02315
lfoot -15.15 33.5463
ltoes -8.23298
413
root 1.055 17.3022 9.65164 -0.678977 -0.857224 -7.56722
lowerback -12.3676 2.83024 4.05455
upperback -11.4988 3.40842 -0.697139
thorax -4.97265 1.41907 -2.72707
lowerneck -10.1842 -1.53188 1.72842
upperneck 11.0975 -1.53349 -6.2664
head 4.93888 -1.09609 -2.34139
rclavicle 4.77083e-015 7.15625e-015
rhumerus -61.3693 23.4031 -114.398
rradius 115.478
rwrist -19.7085
rhand 45.2746 -33.7821
rfingers 7.12502
rthumb 66.5956 -38.0564
lclavicle 4.77083e-015 7.15625e-015
lhumerus -60.2309 -23.5965 111.345
lradius 112.674
lwrist 12.1356
lhand 21.2752 -14.1363
lfingers 7.12502
lthumb 45.7211 9.07342
rfemur 4.83524 18.0902 27.2818
rtibia 14.1667
rfoot -20.0031 -17.2338
rtoes -9.28843
lfemur 13.6687 -24.5633 -16.2096
ltibia 1.48602
lfoot -14.9327 32.4835
ltoes -9.06047
